<?xml version="1.0" standalone="yes"?>
<svg xmlns="http://www.w3.org/2000/svg" width="150" height="150">
<path style="fill:#1c021a; stroke:none;" d="M0 0L0 150L139 150L138.722 148.5L138.056 146.972L137.5 146.083L136 144.389L134.389 142.861L133.639 142.139L132.861 141.361L131.361 139.861L129.861 138.361L129.139 137.611L128.361 136.778L126.778 135.056L125.056 133.389L124.222 132.611L123.389 131.778L121.778 130.056L120.944 129.222L119.222 127.639L117.639 126.139L116.139 124.639L114.639 123.139L113.861 122.361L113.139 121.611L111.611 120.028L109.917 118.722L108.972 118.333L108 118.139L106 118.333L105 118.694L103.056 119.778L102.056 120.306L101.5 120.639L100 121L99.4722 122.5L98.5 124.028L96.9167 125.694L95.9722 126.361L94 127.194L92 127.389L90 127.306L89 127.389L87 128.083L86 128.611L84 129.5L83 129.778L81 130.306L79 131.333L78 132.111L76 133.917L74 135.5L72 136.5L71 136.75L70 136.917L68 136.972L67 136.889L66 136.694L64 135.889L63 135.278L62 134.611L60 133.25L59 132.722L57 132.306L55 132.361L53 131.972L51.0833 130.75L50.2222 129.917L49.3889 129L48.6111 128.111L46.9167 126.694L45.9722 126.25L45 125.889L43 125.278L42 124.917L41 124.472L39 123.611L38 123.306L36 122.917L35 122.667L33.1111 121.667L31.8056 119.972L31.5556 119.056L31.5278 118.056L32 116L30.5278 114.5L29.1944 112.944L28.5 112L27.9444 111L27.5 110L26.9722 108L26.6944 107L25.6667 105L23.9722 103L22.1111 101L21.3333 100L20.6944 99L19.7778 97L19.3333 96L18.2222 94L17.6667 93L16.8056 91L16.3889 90L15.3889 88L14.8889 87L14.4167 86L13.6944 84L13.4167 83L13.2222 82L13.0833 81L13.0833 79L13.4167 77L14.0278 75L14.8056 73L15.1389 72L15.4444 71L15.5 69L15 67L14.6944 66L14.3056 64L14.4167 62L14.6389 61L15.1389 59L15.3611 58L15.75 56L15.8333 55L15.6111 53L15.3889 52L15.1667 50L15.3889 48L15.6111 47L15.7778 46L16.0556 44L16.25 43L16.4722 42L17.2778 40L18.3889 38L19.0278 37L20.4167 35.0278L22.0833 33.25L23.0278 32.5L25 31.4167L27 30.6944L28 30.4167L30 30.0833L32 30L34 29.8889L36 29.3611L38 28.3611L39 27.8056L41 26.5278L43 24.9444L44 24.0556L46 22.4722L48 21.2778L49 20.8611L50 20.4444L51 20.1667L53 19.5556L54 19.1389L55 18.7222L57 17.5556L58 16.8611L60 15.6944L61 15.3611L62 15.1944L64 15.3611L65 15.5278L67 15.5278L69 15.25L70 15.1667L72 15.3889L73 15.5833L75 15.6667L77 15.1944L78 14.9167L79 14.6944L81 14.6111L83 14.5L84 14.2778L85 14L87 13.4167L89 13L91 12.6111L93 12.2222L94 12.0833L96 12.0833L98 12.4167L99 12.7222L100 13.1111L102 14.3056L104 16.0278L105.889 18L107.361 20L107.889 21L108.583 23L108.833 25L108.611 26.9444L108.25 28.5L108 30L109.5 30.2778L111.056 30.9444L112.917 32.25L114.5 33.9722L115.472 35.5L116 37L117.5 37.0833L119.056 37.4722L121 38.2778L122.917 39.4722L124.5 41.0833L125.5 43L125.889 45L125.778 47L125.611 47.9444L125.389 48.9444L125.25 49.5L125 51L126.222 52.5L127.194 54.0556L127.722 55L128.444 57L128.444 59L128.139 59.9444L127.5 61.5L127 63L128.472 64.5L129.806 66.0556L130.5 67L131.472 69L131.667 70L131.5 72L130.722 74L130.194 74.9444L129.222 76.5L128 78L128 80L129.139 81.5L129.333 82.0556L129.778 84L129.667 85L129.389 86L128.611 88L128.306 89L127.917 91L127.361 93L126.917 94L125.889 96L125.417 97L124.583 99L124.111 100L123.083 102L122.306 104L122.028 105.944L122 106.944L122 109L120.5 107.583L119.944 107.167L118.083 105.639L116.417 104.139L115.694 103.389L114.306 102.083L112.778 100.972L110.972 99.6944L109 98.0833L108.056 97.3333L106.5 96.3611L105 96L105.5 97.5L106.083 99.0556L106.278 100L106 101.917L105.028 103.556L104.389 104.333L103 106L102.472 104.5L102.083 103.944L101.528 102.944L100.861 102L99.6944 100.056L99.1111 98.5L99 97L97.6667 97.6667L97.3056 97.8611L97 99L95.5 98.2222L94.9444 97.6944L93.9444 96.8889L93 95.9722L92 95L90 93L89 92L86 89L84 87L82.0278 85L81.1111 84L79.8333 82L79.6667 81L80.25 79.0556L80.8056 78.0556L81.25 77.5L82 76L81 76L79 75L77.6111 76.5L76.6667 78.0556L76.2222 80L76.3611 81L77.3333 83L79.0278 85L81 87L84 90L102 108L104 108L107 105L106.083 107L105.861 108L105.611 108.5L106 110L107 109.222L107.25 108.722L108.472 107.222L109.25 106.528L111.028 105.722L111.944 105.639L112.944 105.694L115 106L114.972 107.5L114.667 109.056L114.278 109.972L112.944 111.667L111.5 112.639L110 113L110.778 114.5L111.306 115.056L112.111 116.056L113.028 117L115 119L117 121L122 126L142 146L144 146L145.5 144.5L147.028 142.944L147.889 142L149.25 140L149.611 139.028L149.806 137.222L149.778 136.389L149.861 134.778L149.944 133.917L150 132L150 131L150 129L150 105L150 0L0 0z"/>
<path style="fill:#443a43; stroke:none;" d="M91 12L92 13L91 12z"/>
<path style="fill:#7d727d; stroke:none;" d="M92 12L93 13L92 12z"/>
<path style="fill:#bab2b8; stroke:none;" d="M93 12L93.7778 12.7222L94.3056 12.75L95.0556 12.9444L95.9722 12.9722L98 13L97.2222 12.2778L96.6944 12.25L95.9444 12.0556L95.0278 12.0278L93 12z"/>
<path style="fill:#635962; stroke:none;" d="M98 12L99 13L98 12z"/>
<path style="fill:#443a43; stroke:none;" d="M86 13L86.7222 13.7222L87.25 13.75L89 14L88.2778 13.2778L87.75 13.25L86 13z"/>
<path style="fill:#7d727d; stroke:none;" d="M89 13L90 14L89 13z"/>
<path style="fill:#fcfcfa; stroke:none;" d="M22 38L20.5556 38.25L19.4444 38.5833L18 39L17.75 40.5L17.3889 42.0556L17.1944 43L16.8056 45L16.6111 46L16.2222 48L16.0833 49L16.0833 51L16.1944 52L16.3889 54L16.3611 55L16.2222 56L15.6944 58L15.4167 59L15.0833 61L15 63L15.0833 65L15.4444 67L15.75 68L16.0278 70L15.8333 71L15.5278 72L15.0556 73L14.3056 75L14.1111 76L14.0278 77L14 79L14 81L14.0833 83L14.25 84L14.4722 85L15.2778 87L15.8333 88L16.9167 90L17.3889 91L17.8056 92L18.6667 94L19.2222 95L20.3333 97L20.7778 98L21.6944 100L22.3333 101L24 103L24.8889 104L26.3611 106L26.8889 107L27.6111 109L28.25 111L29.3056 113L30.6944 115L31.2778 116L31.9167 118L32.0278 118.944L32.25 119.944L32.2778 120.5L33 122L34.1944 121.694L34.5833 121.333L36 120L36.7778 121.25L37.3056 121.639L38.1111 122.361L40 123.583L42 124.5L43 124.778L45 125.194L46.9444 125.611L47.5 125.75L49 126L49.3333 128.028L49.7222 128.944L51.1111 130.361L52.0278 130.889L54 131.556L55.9444 131.694L56.9444 131.556L59 131L59.75 132.25L60.2222 132.639L60.8889 133.361L61.6389 133.972L62.3889 134.583L64.0833 135.5L66 135.917L67 135.972L69 136L70 136L72 135.917L73.9722 135.5L74.9167 135.056L75.7778 134.5L76.6111 133.75L78.2222 132L79.0833 131.111L81 129.722L83 129.083L85 128.694L86 128.389L88 127.611L90 127.111L91 127.028L93 126.972L94.9722 126.667L95.9167 126.278L97.5278 124.889L98.1667 124L99.4722 122.25L100.25 121.472L101.083 120.833L103 119.556L104.944 118.25L105.944 117.694L106.5 117.361L108 117L107.639 115.583L107.278 115.167L106.667 114.333L105.889 113.611L104.111 111.917L103.306 110.972L102 109L101.389 108L100.694 107L99.8889 106L98.9722 105L98 104L96 102L94 100L93 99.0278L92.0556 98.1111L91.0556 97.3056L90.5 96.7778L89 96L88.5833 97.4444L88.25 98.5556L88 100L84 100L83 101L83 103L80.9444 103L79.9444 102.972L79 102.917L77 102.611L75 102.306L73 102.389L71 102.556L70.0556 102.528L68.5 102.25L67 102L66.9722 100.5L66.6667 98.9722L66.2778 98.1111L64.8889 96.6111L63 95.4722L62 94.9444L60.0556 93.9167L58.5 93.2778L57 93L57 91.5L56.8889 89.9444L56.6667 89.0278L56.2778 88.0833L55.6944 87.2222L54.9722 86.3889L53.4722 84.7778L52.8333 83.9444L51.5278 82.25L50.8056 81.5L49.4722 80.5278L48 80L48 77.9444L48 76.9444L47.9167 75L47.8056 74L47.6944 72L47.8611 71L48.6389 69L49.5 67L49.8889 65L49.7778 63L49.6111 62L49.3889 61L49.0833 59.0556L49.0278 58.5L49 57L50.5 56.5556L51.0556 56.3333L53 55.5833L54.9722 54.5L55.8889 53.75L56.6944 52.9167L57.3889 51.9722L58.6111 50.0278L59.3056 49.1111L61.0278 47.7222L62 47.3056L64 46.8056L66 46.4167L67 46.3056L68 46.3056L70 46.6111L72 46.9167L73 46.9444L74 46.8889L76 46.3889L77 46.0278L79 45.6111L81 46.1111L82 46.6111L84 47.6111L85 48.0556L87 49L88 49.5L89.8889 50.6111L91.3889 52.1111L92.5833 54L93.2222 55L94.5278 57L95.5 59L95.9444 61L96.0556 62L96.25 63L96.5 64L97.5 66L99.0556 68L99.9167 69L100.694 70L101.889 72L102.583 74L102.944 76L103.083 77L103.306 78L103.917 80L104.222 82L103.806 84L103.472 85L103 87L102.583 88.9444L102 91L105.056 94.0556L106 95L108 96.9722L109 97.8889L111 99.3889L112.917 100.611L113.778 101.278L115.389 102.806L116.194 103.611L117.806 105.111L118.556 105.75L119.333 106.306L119.75 106.639L121 107L121.083 105.5L121.5 103.972L122.444 102.306L122.778 101.778L124 101L124.083 99.5L124.5 97.9444L124.917 97L125.389 96L126.361 94L126.722 93L127.222 91L127.472 90L127.833 89L128.528 87L128.917 85L128.944 84L128.722 82.1111L128.333 81.3056L128.139 80.7778L127 80L127 78L128.417 77.2222L129.556 75.8889L130.5 74L130.917 72L130.972 70L130.917 69L130.5 67.0278L129.556 65.3333L128.417 64.3611L127 64L127.028 62.5L127.222 60.9444L127.611 59L127.806 57L127.278 55.0278L126.722 54.1111L125.472 52.7778L124 52L124.611 49.9444L124.861 48.9444L125.333 47L125.528 46L125.444 44L124.722 42.0278L123.528 40.25L122.75 39.5L120.972 38.5L120 38.25L119.056 38.0833L117.5 38L116 38L115.5 36.5L115.167 35.9444L114.722 34.9444L113.528 33.1111L111.917 31.6944L110.972 31.25L109.056 30.6111L107 30L107.722 28.5L107.75 27.9444L107.944 26.9444L107.972 25L107.917 24L107.583 22L106.889 20L106.361 19L105.694 18L103.972 16.0833L103 15.25L101 13.9444L100 13.5L99 13.25L98 13.0833L96 13L94 13L92 13.0833L90 13.3889L89 13.6111L87 14L85 14.4722L83 15.1667L82 15.5278L80 15.9167L78 16.0833L76 16.3056L75 16.3889L74 16.3889L72 16.1944L71 16.0833L69 16.0556L67 16.1667L66 16.2222L65 16.1667L64 16.1389L63 16.0556L61 16.1111L60 16.3333L59 16.6944L57 17.8611L56 18.5556L54 19.7222L53 20.1667L52 20.6111L50 21.3056L49 21.6111L48 21.8889L46 22.6944L44 24.1111L42 25.8889L41 26.6944L39 27.9167L38 28.3889L36 29.3889L34 30.3611L32 30.8889L31 30.9722L29 31.0278L28 31.0833L26 31.4722L25 31.8611L24 32.2778L22.1111 33.4722L20.8333 35L20.6111 35.75L20.8889 36.9167L22 38z"/>
<path style="fill:#9b929a; stroke:none;" d="M100 13L101 14L100 13z"/>
<path style="fill:#443a43; stroke:none;" d="M101 13L102 14L101 13M78 14L78.7222 14.7222L79.25 14.75L81 15L80.2778 14.2778L79.75 14.25L78 14M83 14L84 15L83 14z"/>
<path style="fill:#9b929a; stroke:none;" d="M84 14L85 15L84 14z"/>
<path style="fill:#7d727d; stroke:none;" d="M102 14L103 15L102 14z"/>
<path style="fill:#635962; stroke:none;" d="M59 15L60 16L59 15z"/>
<path style="fill:#d0cacc; stroke:none;" d="M60 15L60.7778 15.7222L61.25 15.75L62.0556 15.9444L64 16L63.2222 15.2778L62.75 15.25L61.9444 15.0556L60 15z"/>
<path style="fill:#7d727d; stroke:none;" d="M64 15L65 16L64 15z"/>
<path style="fill:#635962; stroke:none;" d="M67 15L68 16L67 15z"/>
<path style="fill:#bab2b8; stroke:none;" d="M68 15L68.7778 15.7222L69.25 15.75L70.0556 15.9444L72 16L71.2222 15.2778L70.75 15.25L69.9444 15.0556L68 15z"/>
<path style="fill:#635962; stroke:none;" d="M72 15L73 16L72 15M76 15L77 16L76 15z"/>
<path style="fill:#d0cacc; stroke:none;" d="M77 15L77.7778 15.7222L78.3056 15.75L79.1111 15.9444L79.9722 15.9722L80.9444 16L83 16L82.2222 15.2778L81.6944 15.25L80.8889 15.0556L80.0278 15.0278L79.0556 15L77 15z"/>
<path style="fill:#bab2b8; stroke:none;" d="M103 15L104 16L103 15M58 16L59 17L58 16M65.6667 16.3333L66 16.6667L66.3333 16.6667L66 16.3333L65.6667 16.3333z"/>
<path style="fill:#9b929a; stroke:none;" d="M73 16L74 17L73 16z"/>
<path style="fill:#635962; stroke:none;" d="M74 16L75 17L74 16z"/>
<path style="fill:#9b929a; stroke:none;" d="M75 16L76 17L75 16z"/>
<path style="fill:#bab2b8; stroke:none;" d="M104 16L105 17L104 16M57 17L58 18L57 17z"/>
<path style="fill:#9b929a; stroke:none;" d="M105 17L106 18L105 17z"/>
<path style="fill:#635962; stroke:none;" d="M55 18L56 19L55 18z"/>
<path style="fill:#9b929a; stroke:none;" d="M56 18L57 19L56 18z"/>
<path style="fill:#635962; stroke:none;" d="M106 18L107 19L106 18z"/>
<path style="fill:#7d727d; stroke:none;" d="M53 19L54 20L53 19z"/>
<path style="fill:#d0cacc; stroke:none;" d="M54 19L55 20L54 19z"/>
<path style="fill:#443a43; stroke:none;" d="M107 19L108 20L107 19M49 20L50 21L49 20z"/>
<path style="fill:#9b929a; stroke:none;" d="M50.6667 20.3333L51 20.6667L51.3333 20.6667L51 20.3333L50.6667 20.3333z"/>
<path style="fill:#bab2b8; stroke:none;" d="M52 20L53 21L52 20z"/>
<path style="fill:#7d727d; stroke:none;" d="M107 20L108 21L107 20M47 21L48 22L47 21z"/>
<path style="fill:#d0cacc; stroke:none;" d="M48.6667 21.3333L49 21.6667L49.3333 21.6667L49 21.3333L48.6667 21.3333z"/>
<path style="fill:#bab2b8; stroke:none;" d="M107 21L108 22L107 21z"/>
<path style="fill:#635962; stroke:none;" d="M45 22L46 23L45 22z"/>
<path style="fill:#443a43; stroke:none;" d="M108.333 22.6667L108.333 23.3333L108.667 23.3333L108.667 22.6667L108.333 22.6667z"/>
<path style="fill:#9b929a; stroke:none;" d="M44 23L45 24L44 23M43 24L44 25L43 24z"/>
<path style="fill:#7d727d; stroke:none;" d="M108 24L108 27L108.694 26.25L108.694 25.1944L108.694 24.75L108 24z"/>
<path style="fill:#9b929a; stroke:none;" d="M42 25L43 26L42 25z"/>
<path style="fill:#635962; stroke:none;" d="M41 26L42 27L41 26z"/>
<path style="fill:#9b929a; stroke:none;" d="M39.6667 27.3333L39.6667 27.6667L40.3333 27.6667L40.3333 27.3333L39.6667 27.3333z"/>
<path style="fill:#635962; stroke:none;" d="M108 27L109 28L108 27z"/>
<path style="fill:#9b929a; stroke:none;" d="M37 28L38 29L37 28z"/>
<path style="fill:#d0cacc; stroke:none;" d="M107 29L108 30L107 29z"/>
<path style="fill:#635962; stroke:none;" d="M27 30L28 31L27 30z"/>
<path style="fill:#bab2b8; stroke:none;" d="M28 30L28.7778 30.7222L29.3056 30.75L30.0556 30.9444L30.9722 30.9722L33 31L32.2222 30.2778L31.6944 30.25L30.9444 30.0556L30.0278 30.0278L28 30z"/>
<path style="fill:#635962; stroke:none;" d="M33.6667 30.3333L33.6667 30.6667L34.3333 30.6667L34.3333 30.3333L33.6667 30.3333z"/>
<path style="fill:#bab2b8; stroke:none;" d="M108.667 30.3333L108.667 30.6667L109.333 30.6667L109.333 30.3333L108.667 30.3333z"/>
<path style="fill:#7d727d; stroke:none;" d="M110 30L111 31L110 30z"/>
<path style="fill:#635962; stroke:none;" d="M24 31L25 32L24 31z"/>
<path style="fill:#bab2b8; stroke:none;" d="M25 31L26 32L25 31z"/>
<path style="fill:#7d727d; stroke:none;" d="M112 31L113 32L112 31z"/>
<path style="fill:#443a43; stroke:none;" d="M22 32L23 33L22 32z"/>
<path style="fill:#9b929a; stroke:none;" d="M23 32L24 33L23 32M113 32L114 33L113 32z"/>
<path style="fill:#635962; stroke:none;" d="M21 33L22 34L21 33z"/>
<path style="fill:#7d727d; stroke:none;" d="M114 33L115 34L114 33z"/>
<path style="fill:#443a43; stroke:none;" d="M117.333 33.6667L117.333 34.3333L117.667 34.3333L117.667 33.6667L117.333 33.6667M20 34L21 35L20 34z"/>
<path style="fill:#d0cacc; stroke:none;" d="M114 34L115 35L114 34z"/>
<path style="fill:#635962; stroke:none;" d="M115 35L116 36L115 35z"/>
<path style="fill:#d0cacc; stroke:none;" d="M18 39L19.4444 38.75L20.5556 38.4167L22 38L22 37L20 36L19.0278 36.7222L18.8333 37.25L18 39z"/>
<path style="fill:#9b929a; stroke:none;" d="M115 36L116 37L115 36z"/>
<path style="fill:#7d727d; stroke:none;" d="M18 37L19 38L18 37z"/>
<path style="fill:#bab2b8; stroke:none;" d="M116 37L116.778 37.7222L117.25 37.75L118.056 37.9444L120 38L119.222 37.2778L118.75 37.25L117.944 37.0556L116 37z"/>
<path style="fill:#9b929a; stroke:none;" d="M121 38L122 39L121 38z"/>
<path style="fill:#443a43; stroke:none;" d="M17 39L18 40L17 39z"/>
<path style="fill:#635962; stroke:none;" d="M123 39L124 40L123 39z"/>
<path style="fill:#d0cacc; stroke:none;" d="M17.3333 40.6667L17.3333 41L17.6667 41.3333L17.6667 41L17.3333 40.6667z"/>
<path style="fill:#443a43; stroke:none;" d="M124 40L125 41L124 40M16 41L16 45L16.7222 44.2222L16.8889 43L16.7222 42.2778L16.7222 41.7778L16 41z"/>
<path style="fill:#bab2b8; stroke:none;" d="M124 41L125 42L124 41z"/>
<path style="fill:#635962; stroke:none;" d="M125 42L126 43L125 42z"/>
<path style="fill:#bab2b8; stroke:none;" d="M125 43L126 44L125 43z"/>
<path style="fill:#7d727d; stroke:none;" d="M16 45L17 46L16 45M76 46L76.7778 46.4722L77.25 46.3611L78.0556 46.3333L80 46L79.2222 45.3056L78.75 45.3056L77.4722 45.3056L76 46z"/>
<path style="fill:#bab2b8; stroke:none;" d="M80 45L81 46L80 45M16 46L17 47L16 46z"/>
<path style="fill:#d0cacc; stroke:none;" d="M65 46L66 47L65 46z"/>
<path style="fill:#635962; stroke:none;" d="M66 46L67 47L66 46z"/>
<path style="fill:#443a43; stroke:none;" d="M67.6667 46.3333L67.6667 46.6667L68.3333 46.6667L68.3333 46.3333L67.6667 46.3333z"/>
<path style="fill:#7d727d; stroke:none;" d="M69 46L70 47L69 46z"/>
<path style="fill:#1c021a; stroke:none;" d="M60 48L59 49.5L58.75 50.0556L57.5278 52L55.9167 53.8889L54.0556 55.2778L52.5 55.8889L51 56L50 57L49 59L49.4444 60.5L49.6667 61.0556L50.2778 63L50.5 64L50.4167 66L50.0556 67L49.0833 69L48.6389 70L48.1944 72L48.25 73L48.3889 74L48.7778 76L48.9167 76.9444L49 78.5L49 80L50.4167 81.0833L51.5833 82.25L52.1667 83L53.4722 84.5278L54.2222 85.1667L55.7778 86.4722L56.5 87.25L57.5 89.0278L57.75 89.9444L57.9722 91.5L58 93L59.5 93.3333L60.0556 93.6111L62 94.5L63.9722 95.6111L65.6944 97.1111L66.8889 98.9444L67.3056 99.9444L67.5556 100.5L68 102L70.0556 102L72 101.944L74 101.833L75 101.778L77 101.861L78 101.944L79.9444 102L80.9444 102L83 102L84 100L84 99L88 99L87.8889 96.9444L87.6667 95.9444L86.6667 94L85.8889 93L84.9722 92L83 90L82 89L80 87L79 86L77.0278 84L76.1111 83L74.7222 81L74.3056 80L73.6944 78L72.6667 76L70.9722 74L69.1111 72L67.8333 70L67.6667 69L67.8333 68L69.1111 66.1389L71 65.0556L72 65.0556L73 65.4444L75 67.0278L76.9444 68.9444L80 72L81.5 71.6944L83.0556 71.9444L84 72.4167L85 73.1389L86 74.0278L87 75L89 77L91 79L94 82L96 84L98 85.9722L98.9444 86.8889L99.9444 87.6944L100.5 88.2222L102 89L102.111 87.5L102.611 85.9444L103.361 84L103.611 83L103.639 82L103.167 80L102.472 78L102.25 77L102.083 76L102 74L102 73.0556L102 72.0556L102 70L99.9444 68.5278L98.0833 66.9167L96.5 65L95.9444 64L95.5 63L95.0556 61L94.9444 60L94.5 58L94.0833 57L93.5833 56L92.3056 54L90.7778 52.0278L89.9167 51.1111L88 49.6944L86 48.8611L85 48.5278L84 48.0833L82 47.0833L81 46.6389L79 46.1944L77 46.4722L76 46.8333L74 47.4444L73 47.5278L71 47.3611L69 47.0833L67 47.0833L66 47.2222L65 47.3889L63.0556 47.7778L61.5 47.9722L60 48z"/>
<path style="fill:#9b929a; stroke:none;" d="M81 46L82 47L81 46z"/>
<path style="fill:#d0cacc; stroke:none;" d="M125.333 46.6667L125.333 47.3333L125.667 47.3333L125.667 46.6667L125.333 46.6667z"/>
<path style="fill:#7d727d; stroke:none;" d="M15 47L16 48L15 47z"/>
<path style="fill:#9b929a; stroke:none;" d="M60 47L61 48L60 47z"/>
<path style="fill:#635962; stroke:none;" d="M61 47L61.7778 47.7222L62.25 47.75L63.0556 47.9444L65 48L64.2222 47.2778L63.75 47.25L62.9444 47.0556L61 47M71 47L71.7778 47.7222L72.25 47.75L73.0556 47.9444L75 48L74.2222 47.2778L73.75 47.25L72.9444 47.0556L71 47M82 47L83 48L82 47z"/>
<path style="fill:#d0cacc; stroke:none;" d="M83 47L84 48L83 47M15 48L15 51L15.6944 50.25L15.6944 49.1944L15.6944 48.75L15 48z"/>
<path style="fill:#635962; stroke:none;" d="M59 48L60 49L59 48M84 48L84.7222 48.7222L85.25 48.75L87 49L86.2778 48.2778L85.75 48.25L84 48z"/>
<path style="fill:#9b929a; stroke:none;" d="M125 48L126 49L125 48M58 49L59 50L58 49z"/>
<path style="fill:#635962; stroke:none;" d="M58 50L59 51L58 50z"/>
<path style="fill:#7d727d; stroke:none;" d="M89 50L90 51L89 50z"/>
<path style="fill:#bab2b8; stroke:none;" d="M90 50L90 51L92 52L91 50L90 50z"/>
<path style="fill:#d0cacc; stroke:none;" d="M124 50L124.361 51.4722L125.278 52.75L125.611 53.2222L127 54L126.306 52.5278L125.361 51.25L125.056 50.7778L124 50z"/>
<path style="fill:#9b929a; stroke:none;" d="M15 51L16 52L15 51z"/>
<path style="fill:#443a43; stroke:none;" d="M90 51L91 52L90 51M125 51L126 52L125 51z"/>
<path style="fill:#635962; stroke:none;" d="M15 52L16 53L15 52z"/>
<path style="fill:#7d727d; stroke:none;" d="M57 52L58 53L57 52z"/>
<path style="fill:#635962; stroke:none;" d="M91 52L92 53L91 52z"/>
<path style="fill:#443a43; stroke:none;" d="M126 52L127 53L126 52z"/>
<path style="fill:#d0cacc; stroke:none;" d="M16 53L16 56L16.6944 55.25L16.6944 54.1944L16.6944 53.75L16 53z"/>
<path style="fill:#7d727d; stroke:none;" d="M56 53L57 54L56 53M55 54L56 55L55 54M92 54L93 55L92 54z"/>
<path style="fill:#9b929a; stroke:none;" d="M127 54L128 55L127 54z"/>
<path style="fill:#7d727d; stroke:none;" d="M53 55L54 56L53 55z"/>
<path style="fill:#443a43; stroke:none;" d="M54 55L55 56L54 55z"/>
<path style="fill:#bab2b8; stroke:none;" d="M93 55L94 56L93 55z"/>
<path style="fill:#9b929a; stroke:none;" d="M50 56L51 57L50 56z"/>
<path style="fill:#bab2b8; stroke:none;" d="M94 56L95 57L94 56z"/>
<path style="fill:#635962; stroke:none;" d="M128 56L128 60L128.722 59.2222L128.722 58.7222L128.889 58L128.722 56.7778L128 56M15 57L16 58L15 57z"/>
<path style="fill:#9b929a; stroke:none;" d="M49 57L50 58L49 57z"/>
<path style="fill:#443a43; stroke:none;" d="M94 57L95 58L94 57z"/>
<path style="fill:#9b929a; stroke:none;" d="M15 58L16 59L15 58z"/>
<path style="fill:#635962; stroke:none;" d="M49 58L50 59L49 58z"/>
<path style="fill:#9b929a; stroke:none;" d="M95 58L95 63L95.7222 62.2222L95.75 61.6944L95.9167 60.0833L95.75 59.3056L95.7222 58.7778L95 58z"/>
<path style="fill:#d0cacc; stroke:none;" d="M127.333 59.6667L127.333 60.3333L127.667 60.3333L127.667 59.6667L127.333 59.6667z"/>
<path style="fill:#443a43; stroke:none;" d="M49 60L50 61L49 60z"/>
<path style="fill:#635962; stroke:none;" d="M14 61L14 64L14.6944 63.25L14.6944 62.1944L14.6944 61.75L14 61z"/>
<path style="fill:#bab2b8; stroke:none;" d="M49 61L50 62L49 61z"/>
<path style="fill:#7d727d; stroke:none;" d="M127 61L128 62L127 61z"/>
<path style="fill:#443a43; stroke:none;" d="M50 63L50 67L50.7222 66.2222L50.7222 65.7222L50.8889 65L50.7222 63.7778L50 63M95 63L96 64L95 63z"/>
<path style="fill:#bab2b8; stroke:none;" d="M127 63L128 64L127 63z"/>
<path style="fill:#9b929a; stroke:none;" d="M14 64L15 65L14 64z"/>
<path style="fill:#7d727d; stroke:none;" d="M70 64L68.2778 66.0556L67.6944 67.0556L67.3611 69L67.9444 70.9167L68.4722 71.7778L69.8056 73.3333L70.9167 74.5833L72 76L72.6111 75.2222L72.4167 74.6944L72.2222 73.8889L70.9167 72L69.3056 70.0556L68.7778 69.5L68 68L69.5 67.5L70 67.1944L71.5 66.5L73 66L73.7778 67.5L74.3056 68.0556L75.1111 69.0278L76.9444 70.6667L78.5 71.6389L80 72L79.2222 70.5L78.6944 69.9444L77.8889 68.9444L76 67.0833L74 65.5L73.0556 64.9444L71.5 64.2778L70 64z"/>
<path style="fill:#443a43; stroke:none;" d="M72 64L73 65L72 64z"/>
<path style="fill:#bab2b8; stroke:none;" d="M96 64L97 65L96 64z"/>
<path style="fill:#7d727d; stroke:none;" d="M14 65L15 66L14 65z"/>
<path style="fill:#443a43; stroke:none;" d="M96 65L97 66L96 65z"/>
<path style="fill:#1c021a; stroke:none;" d="M69 67L69.1111 69.0556L69.3333 70.0556L70.3333 72L72.0278 73.8889L73 74.6667L74 75.25L75.9444 75.6111L76.9444 75.3056L79 74L79 72L73 66L71.5556 66.25L70.4444 66.5833L69 67z"/>
<path style="fill:#7d727d; stroke:none;" d="M97 66L98 67L97 66z"/>
<path style="fill:#635962; stroke:none;" d="M130 66L131 67L130 66z"/>
<path style="fill:#bab2b8; stroke:none;" d="M15 67L16 68L15 67z"/>
<path style="fill:#9b929a; stroke:none;" d="M49 67L50 68L49 67z"/>
<path style="fill:#7d727d; stroke:none;" d="M98 67L99 68L98 67z"/>
<path style="fill:#635962; stroke:none;" d="M15 68L16 69L15 68z"/>
<path style="fill:#443a43; stroke:none;" d="M49 68L50 69L49 68M68.3333 68.6667L68.3333 69L68.6667 69.3333L68.6667 68.6667L68.3333 68.6667M99 68L100 69L99 68z"/>
<path style="fill:#7d727d; stroke:none;" d="M131 68L131 72L131.722 71.2222L131.722 70.7222L131.889 70L131.722 68.7778L131 68M16.3333 69.6667L16.3333 70.3333L16.6667 70.3333L16.6667 69.6667L16.3333 69.6667M48 69L49 70L48 69z"/>
<path style="fill:#d0cacc; stroke:none;" d="M47 70L48 71L47 70z"/>
<path style="fill:#443a43; stroke:none;" d="M67 70L68 71L67 70M15 71L16 72L15 71z"/>
<path style="fill:#9b929a; stroke:none;" d="M47.3333 71.6667L47.3333 72.3333L47.6667 72.3333L47.6667 72L47.3333 71.6667z"/>
<path style="fill:#7d727d; stroke:none;" d="M81 71L81.7778 72.25L82.3056 72.6667L83.1111 73.4444L85 75.0833L87 77L88 78L90 80L94 84L96 86L98 87.9722L98.9444 88.8889L99.9444 89.6944L100.5 90.2222L102 91L101.639 89.5L100.667 87.9444L98.9722 86L98 85L97 84L95 82L92 79L90 77L89 76L87 74.0833L85 72.5L84.0556 71.9444L82.5 71.2778L81 71z"/>
<path style="fill:#443a43; stroke:none;" d="M83 71L84 72L83 71z"/>
<path style="fill:#d0cacc; stroke:none;" d="M15 72L16 73L15 72z"/>
<path style="fill:#9b929a; stroke:none;" d="M79 74L80.75 73.3333L81.2778 73.1389L82 72L80.6111 72.1111L79.6667 72.6667L79.3611 72.8611L79 74z"/>
<path style="fill:#443a43; stroke:none;" d="M131 72L132 73L131 72z"/>
<path style="fill:#7d727d; stroke:none;" d="M14 73L15 74L14 73z"/>
<path style="fill:#635962; stroke:none;" d="M70 73L71 74L70 73z"/>
<path style="fill:#1c021a; stroke:none;" d="M81 73L81.7778 74.0833L82.3056 74.4722L83.1111 75.2778L84.0278 76.0833L86 78L88 80L93 85L96 88L98 90L100 91.9722L100.944 92.8889L101.944 93.6944L102.5 94.2222L104 95L103.639 93.5L102.667 91.9444L101.889 91L100.972 90L100 89L98 87L97 86L94 83L91 80L90 79L88 77L87 76.0278L86 75.1111L84.0556 73.7222L82.5 73.1111L81 73z"/>
<path style="fill:#9b929a; stroke:none;" d="M102 73L102 78L102.722 77.2222L102.75 76.6944L102.917 75.0833L102.75 74.3056L102.722 73.7778L102 73z"/>
<path style="fill:#635962; stroke:none;" d="M48 74L49 75L48 74z"/>
<path style="fill:#7d727d; stroke:none;" d="M78 74L76.5833 75.3056L76.2222 75.5L75.0833 76.0556L74 76L74 77.5L74.0278 79.0556L74.1111 80L74.7222 82L76.1111 84L77.0278 85L79 87L80 88L82 90L83 91L84.9722 93L85.8889 94L86.6667 94.9444L87.6389 96.5L88 98L88.9722 97.2778L89.1667 96.75L90 95L83 88L81 86L80 85L79 84.0278L78.0556 83.1111L77.0556 82.3056L76.5 81.7778L75 81L75 79L76.5 78.2222L77.9444 76.9444L78.6944 76.0278L79.2222 75.5L80 74L78 74z"/>
<path style="fill:#443a43; stroke:none;" d="M80 74L80.3611 75.1389L81.2778 75.7222L82.5278 75.9722L84 76L83.2222 74.8611L82.75 74.6667L81.4722 74.1111L80 74z"/>
<path style="fill:#9b929a; stroke:none;" d="M130 74L131 75L130 74z"/>
<path style="fill:#7d727d; stroke:none;" d="M48.3333 75.6667L48.3333 76.3333L48.6667 76.3333L48.6667 75.6667L48.3333 75.6667z"/>
<path style="fill:#9b929a; stroke:none;" d="M73 75L74 76L73 75z"/>
<path style="fill:#7d727d; stroke:none;" d="M13 76L13 84L13.7222 83.2222L13.75 82.6944L13.9444 81.8889L13.9722 80.9722L14 80L13.9444 78.1111L13.75 77.3056L13.7222 76.7778L13 76z"/>
<path style="fill:#635962; stroke:none;" d="M73 76L74 77L73 76z"/>
<path style="fill:#443a43; stroke:none;" d="M75 76L76 77L75 76z"/>
<path style="fill:#9b929a; stroke:none;" d="M82 76L83 77L82 76z"/>
<path style="fill:#d0cacc; stroke:none;" d="M83 76L84 77L83 76z"/>
<path style="fill:#7d727d; stroke:none;" d="M84 76L85 77L84 76M129 76L130 77L129 76z"/>
<path style="fill:#635962; stroke:none;" d="M48.3333 77.6667L48.3333 78.3333L48.6667 78.3333L48.6667 77.6667L48.3333 77.6667z"/>
<path style="fill:#7d727d; stroke:none;" d="M81 77L82 78L81 77z"/>
<path style="fill:#fcfcfa; stroke:none;" d="M79 80L79 82L86 89L89 92L91 93.9722L93 95.6667L94 96.2778L95 96.6389L96.9722 96.6389L97.8889 96.2778L98.6667 95.6667L99.25 94.8889L99.5556 93L99.25 92L97.8889 90L96.9722 89L96 88L94 86L93 85L91 83L89 81L87 79.1111L86 78.3333L85 77.75L84 77.4444L83 77.4444L82.0556 77.6944L80.5 78.6111L79 80z"/>
<path style="fill:#9b929a; stroke:none;" d="M85 77L86 78L85 77M128 77L129 78L128 77M80 78L81 79L80 78z"/>
<path style="fill:#7d727d; stroke:none;" d="M86 78L87 79L86 78z"/>
<path style="fill:#443a43; stroke:none;" d="M102 78L103 79L102 78z"/>
<path style="fill:#9b929a; stroke:none;" d="M127.333 78.6667L127.333 79.3333L127.667 79.3333L127.667 78.6667L127.333 78.6667z"/>
<path style="fill:#bab2b8; stroke:none;" d="M48 79L49 80L48 79z"/>
<path style="fill:#443a43; stroke:none;" d="M75.3333 79.6667L75.3333 80.3333L75.6667 80.3333L75.6667 79.6667L75.3333 79.6667z"/>
<path style="fill:#9b929a; stroke:none;" d="M79 79L80 80L79 79z"/>
<path style="fill:#7d727d; stroke:none;" d="M87 79L88 80L87 79z"/>
<path style="fill:#bab2b8; stroke:none;" d="M103 79L103.417 80.4444L103.75 81.5556L104 83L104.694 82.2222L104.667 81L104.306 80.2778L104.139 79.7778L103 79z"/>
<path style="fill:#9b929a; stroke:none;" d="M49 80L50 81L49 80z"/>
<path style="fill:#635962; stroke:none;" d="M88 80L89 81L88 80z"/>
<path style="fill:#443a43; stroke:none;" d="M103 80L104 81L103 80z"/>
<path style="fill:#635962; stroke:none;" d="M128 80L129 81L128 80z"/>
<path style="fill:#443a43; stroke:none;" d="M51 81L52 82L51 81z"/>
<path style="fill:#635962; stroke:none;" d="M89 81L90 82L89 81z"/>
<path style="fill:#443a43; stroke:none;" d="M129 81L130 82L129 81z"/>
<path style="fill:#9b929a; stroke:none;" d="M79 82L80 83L79 82z"/>
<path style="fill:#7d727d; stroke:none;" d="M90 82L91 83L90 82M129 82L130 83L129 82z"/>
<path style="fill:#635962; stroke:none;" d="M52 83L53 84L52 83z"/>
<path style="fill:#9b929a; stroke:none;" d="M80 83L81 84L80 83z"/>
<path style="fill:#7d727d; stroke:none;" d="M91 83L92 84L91 83z"/>
<path style="fill:#d0cacc; stroke:none;" d="M129 83L129 86L129.694 85.25L129.694 84.1944L129.694 83.75L129 83z"/>
<path style="fill:#7d727d; stroke:none;" d="M81 84L82 85L81 84M92 84L93 85L92 84z"/>
<path style="fill:#9b929a; stroke:none;" d="M103 84L104 85L103 84z"/>
<path style="fill:#bab2b8; stroke:none;" d="M14 85L15 86L14 85z"/>
<path style="fill:#d0cacc; stroke:none;" d="M53 85L54 86L53 85z"/>
<path style="fill:#635962; stroke:none;" d="M54 85L55 86L54 85z"/>
<path style="fill:#7d727d; stroke:none;" d="M82 85L83 86L82 85M93 85L94 86L93 85z"/>
<path style="fill:#635962; stroke:none;" d="M102 85L102 89L102.722 88.2222L102.722 87.7222L102.889 87L102.722 85.7778L102 85M14 86L15 87L14 86z"/>
<path style="fill:#d0cacc; stroke:none;" d="M55 86L56 87L55 86z"/>
<path style="fill:#443a43; stroke:none;" d="M56 86L57 87L56 86z"/>
<path style="fill:#9b929a; stroke:none;" d="M83 86L84 87L83 86z"/>
<path style="fill:#7d727d; stroke:none;" d="M94 86L95 87L94 86M129 86L130 87L129 86z"/>
<path style="fill:#d0cacc; stroke:none;" d="M15 87L16 88L15 87z"/>
<path style="fill:#9b929a; stroke:none;" d="M56 87L57 88L56 87M84 87L85 88L84 87z"/>
<path style="fill:#7d727d; stroke:none;" d="M95 87L96 88L95 87z"/>
<path style="fill:#bab2b8; stroke:none;" d="M128 87L129 88L128 87z"/>
<path style="fill:#443a43; stroke:none;" d="M15 88L16 89L15 88M57 88L57 92L57.7222 91.2222L57.8889 90L57.7222 89.2778L57.7222 88.7778L57 88z"/>
<path style="fill:#7d727d; stroke:none;" d="M85 88L86 89L85 88M96 88L97 89L96 88M16 89L17 90L16 89M86 89L87 90L86 89M97 89L98 90L97 89z"/>
<path style="fill:#bab2b8; stroke:none;" d="M102 89L103 90L102 89z"/>
<path style="fill:#635962; stroke:none;" d="M127.333 89.6667L127.333 90.3333L127.667 90.3333L127.667 90L127.333 89.6667z"/>
<path style="fill:#bab2b8; stroke:none;" d="M17 90L17 93L17.6944 92.25L17.6944 91.1944L17.6944 90.75L17 90z"/>
<path style="fill:#7d727d; stroke:none;" d="M87 90L88 91L87 90z"/>
<path style="fill:#635962; stroke:none;" d="M98 90L99 91L98 90z"/>
<path style="fill:#9b929a; stroke:none;" d="M88 91L89 92L88 91z"/>
<path style="fill:#7d727d; stroke:none;" d="M99 91L100 92L99 91z"/>
<path style="fill:#9b929a; stroke:none;" d="M102 91L103 92L102 91z"/>
<path style="fill:#bab2b8; stroke:none;" d="M127.333 91.6667L127.333 92.3333L127.667 92.3333L127.667 92L127.333 91.6667z"/>
<path style="fill:#7d727d; stroke:none;" d="M57 92L58 93L57 92M89 92L90 93L89 92z"/>
<path style="fill:#635962; stroke:none;" d="M100 92L101 93L100 92z"/>
<path style="fill:#9b929a; stroke:none;" d="M103 92L104 93L103 92z"/>
<path style="fill:#443a43; stroke:none;" d="M17 93L18 94L17 93z"/>
<path style="fill:#9b929a; stroke:none;" d="M59 93L60 94L59 93z"/>
<path style="fill:#443a43; stroke:none;" d="M60 93L61 94L60 93z"/>
<path style="fill:#9b929a; stroke:none;" d="M90 93L91 94L90 93z"/>
<path style="fill:#7d727d; stroke:none;" d="M100 93L101 94L100 93z"/>
<path style="fill:#443a43; stroke:none;" d="M101 93L99.8611 94.5L99.2778 96.0556L99.0556 98L99.1111 99L99.6944 101L100.833 102.944L101.556 103.944L103 106L104.056 105.306L104.389 104.917L105.028 104.278L105.583 103.583L106.472 101.917L106.667 100.972L106.528 99.0278L106.25 98.0833L105.889 96.4722L106 95L105 94L103.75 94.0833L103.389 93.9722L102.611 93.75L101 93z"/>
<path style="fill:#9b929a; stroke:none;" d="M104 93L105 94L104 93z"/>
<path style="fill:#635962; stroke:none;" d="M127 93L128 94L127 93z"/>
<path style="fill:#7d727d; stroke:none;" d="M18 94L19 95L18 94z"/>
<path style="fill:#635962; stroke:none;" d="M61 94L62 95L61 94z"/>
<path style="fill:#7d727d; stroke:none;" d="M91 94L92 95L91 94z"/>
<path style="fill:#9b929a; stroke:none;" d="M105 94L106 95L105 94M126 94L127 95L126 94z"/>
<path style="fill:#635962; stroke:none;" d="M19 95L20 96L19 95z"/>
<path style="fill:#d0cacc; stroke:none;" d="M62.6667 95.3333L63 95.6667L63.3333 95.6667L63 95.3333L62.6667 95.3333z"/>
<path style="fill:#9b929a; stroke:none;" d="M64 95L65 96L64 95M92 95L93 96L92 95M106 95L107 96L106 95z"/>
<path style="fill:#bab2b8; stroke:none;" d="M125 95L126 96L125 95M20 96L21 97L20 96M65 96L66 97L65 96z"/>
<path style="fill:#7d727d; stroke:none;" d="M90 96L91 97L90 96M93 96L94 97L93 96z"/>
<path style="fill:#635962; stroke:none;" d="M98 96L99 97L98 96z"/>
<path style="fill:#9b929a; stroke:none;" d="M107 96L108 97L107 96z"/>
<path style="fill:#443a43; stroke:none;" d="M125 96L126 97L125 96z"/>
<path style="fill:#7d727d; stroke:none;" d="M20 97L20 100L20.6944 99.25L20.6944 98.1944L20.6944 97.75L20 97z"/>
<path style="fill:#9b929a; stroke:none;" d="M66 97L67 98L66 97M91 97L92 98L91 97z"/>
<path style="fill:#7d727d; stroke:none;" d="M94 97L95 98L94 97z"/>
<path style="fill:#d0cacc; stroke:none;" d="M95.6667 97.3333L96 97.6667L96.3333 97.6667L96 97.3333L95.6667 97.3333z"/>
<path style="fill:#9b929a; stroke:none;" d="M108 97L109 98L108 97M124 97L125 98L124 97M92 98L93 99L92 98z"/>
<path style="fill:#443a43; stroke:none;" d="M95.6667 98.3333L96 98.6667L96.3333 98.6667L96 98.3333L95.6667 98.3333z"/>
<path style="fill:#7d727d; stroke:none;" d="M109 98L110 99L109 98z"/>
<path style="fill:#635962; stroke:none;" d="M124.333 98.6667L124.333 99.3333L124.667 99.3333L124.667 99L124.333 98.6667z"/>
<path style="fill:#443a43; stroke:none;" d="M84.6667 99.3333L84.6667 99.6667L85.3333 99.6667L85 99.3333L84.6667 99.3333z"/>
<path style="fill:#635962; stroke:none;" d="M86 99L87 100L86 99z"/>
<path style="fill:#bab2b8; stroke:none;" d="M87 99L88 100L87 99z"/>
<path style="fill:#9b929a; stroke:none;" d="M93 99L94 100L93 99M110 99L111 100L110 99z"/>
<path style="fill:#bab2b8; stroke:none;" d="M21 100L22 101L21 100z"/>
<path style="fill:#443a43; stroke:none;" d="M67 100L68 101L67 100z"/>
<path style="fill:#9b929a; stroke:none;" d="M83 100L84 101L83 100M94 100L95 101L94 100z"/>
<path style="fill:#bab2b8; stroke:none;" d="M111 100L112 101L111 100z"/>
<path style="fill:#635962; stroke:none;" d="M112 100L113 101L112 100z"/>
<path style="fill:#d0cacc; stroke:none;" d="M113 100L114 101L113 100z"/>
<path style="fill:#bab2b8; stroke:none;" d="M22 101L23 102L22 101M67 101L68 102L67 101z"/>
<path style="fill:#443a43; stroke:none;" d="M74.6667 101.333L74.6667 101.667L75.3333 101.667L75.3333 101.333L74.6667 101.333z"/>
<path style="fill:#7d727d; stroke:none;" d="M95 101L96 102L95 101M110 101L111 102L110 101z"/>
<path style="fill:#bab2b8; stroke:none;" d="M114 101L115 102L114 101z"/>
<path style="fill:#d0cacc; stroke:none;" d="M122 101L123 102L122 101z"/>
<path style="fill:#635962; stroke:none;" d="M123 101L124 102L123 101z"/>
<path style="fill:#9b929a; stroke:none;" d="M23 102L24 103L23 102M69 102L69.7778 102.722L70.25 102.75L71.0556 102.944L73 103L72.2222 102.278L71.75 102.25L70.9444 102.056L69 102M76 102L77 103L76 102z"/>
<path style="fill:#635962; stroke:none;" d="M77 102L78 103L77 102z"/>
<path style="fill:#443a43; stroke:none;" d="M78.6667 102.333L79 102.667L79.3333 102.667L79.3333 102.333L78.6667 102.333z"/>
<path style="fill:#9b929a; stroke:none;" d="M80 102L80.7222 102.722L81.25 102.75L83 103L82.2778 102.278L81.75 102.25L80 102M96 102L97 103L96 102M109 102L107 104L107 105L108.361 104.25L109.083 103.194L109.361 102.75L109 102z"/>
<path style="fill:#635962; stroke:none;" d="M110 102L111 103L110 102M114 102L115 103L114 102M122 102L123 103L122 102z"/>
<path style="fill:#7d727d; stroke:none;" d="M24 103L25 104L24 103M97 103L98 104L97 103z"/>
<path style="fill:#635962; stroke:none;" d="M109 103L110 104L109 103z"/>
<path style="fill:#d0cacc; stroke:none;" d="M121 103L121 106L121.694 105.25L121.694 104.194L121.694 103.75L121 103z"/>
<path style="fill:#443a43; stroke:none;" d="M25 104L26 105L25 104z"/>
<path style="fill:#7d727d; stroke:none;" d="M98 104L99 105L98 104z"/>
<path style="fill:#443a43; stroke:none;" d="M108 104L109 105L108 104z"/>
<path style="fill:#635962; stroke:none;" d="M116 104L116 105L118 106L117 104L116 104z"/>
<path style="fill:#bab2b8; stroke:none;" d="M117 104L118 105L117 104z"/>
<path style="fill:#9b929a; stroke:none;" d="M26 105L27 106L26 105z"/>
<path style="fill:#7d727d; stroke:none;" d="M99 105L100 106L99 105z"/>
<path style="fill:#9b929a; stroke:none;" d="M106 105L105 107L106.083 106L106.417 105.667L106 105z"/>
<path style="fill:#7d727d; stroke:none;" d="M110 105L111 106L110 105z"/>
<path style="fill:#d0cacc; stroke:none;" d="M111 105L110.333 106.75L110.139 107.278L109 108L109.667 109.028L110.333 109.806L111 111L114 111L115 110L114.722 108.528L114.056 107.194L113.556 106.5L112.417 105.528L111 105z"/>
<path style="fill:#7d727d; stroke:none;" d="M112 105L113 106L112 105z"/>
<path style="fill:#d0cacc; stroke:none;" d="M118 105L119 106L118 105z"/>
<path style="fill:#9b929a; stroke:none;" d="M100 106L101 107L100 106z"/>
<path style="fill:#635962; stroke:none;" d="M106 106L107 107L106 106M108 106L109 107L108 106z"/>
<path style="fill:#fcfcfa; stroke:none;" d="M109 106L108.306 107.5L108.389 109.028L109.333 110.667L110.056 111.278L111.5 111.889L113 112L112.306 110.944L111.917 110.639L111.333 110.056L110.25 109.333L109 109L110.333 107.583L110.694 107.194L111 106L109 106z"/>
<path style="fill:#443a43; stroke:none;" d="M114 106L115 107L114 106M121.333 106.667L121.333 107.333L121.667 107.333L121.667 107L121.333 106.667z"/>
<path style="fill:#9b929a; stroke:none;" d="M101 107L102 108L101 107z"/>
<path style="fill:#7d727d; stroke:none;" d="M104 107L105 108L104 107z"/>
<path style="fill:#443a43; stroke:none;" d="M105 107L106 108L105 107z"/>
<path style="fill:#bab2b8; stroke:none;" d="M114 107L115 108L114 107z"/>
<path style="fill:#9b929a; stroke:none;" d="M120 107L121 108L120 107M27.3333 108.667L27.3333 109.333L27.6667 109.333L27.6667 108.667L27.3333 108.667z"/>
<path style="fill:#7d727d; stroke:none;" d="M102 108L103 109L102 108z"/>
<path style="fill:#d0cacc; stroke:none;" d="M102 111L103.389 110.278L103.75 109.75L105 108L103.611 108.361L102.667 109.278L102.361 109.611L102 111z"/>
<path style="fill:#635962; stroke:none;" d="M107 108L107 111L107.694 110.25L107.694 109.194L107.694 108.75L107 108z"/>
<path style="fill:#9b929a; stroke:none;" d="M121 108L122 109L121 108z"/>
<path style="fill:#443a43; stroke:none;" d="M123.333 108.667L123.333 109.333L123.667 109.333L123.667 108.667L123.333 108.667z"/>
<path style="fill:#fcfcfa; stroke:none;" d="M104 109L104.778 110.5L105.306 111.056L106.111 112.056L107.028 113L108 114L109 115L111 117L121 127L131 137L133 139L134 140L135 140.972L135.944 141.889L136.944 142.694L137.5 143.222L139 144L138.222 142.5L137.694 141.944L136.889 140.944L135.083 139.028L133.389 137.222L132.611 136.389L131.778 135.611L129.972 133.917L128 132L126 130L122 126L112 116L110 114L109 113L108 112.028L107.056 111.111L106.056 110.306L105.5 109.778L104 109z"/>
<path style="fill:#bab2b8; stroke:none;" d="M105 109L106 110L105 109z"/>
<path style="fill:#9b929a; stroke:none;" d="M122 109L123 110L122 109z"/>
<path style="fill:#443a43; stroke:none;" d="M144 109L144 111L146 111L146 109L144 109z"/>
<path style="fill:#635962; stroke:none;" d="M27 110L28 111L27 110z"/>
<path style="fill:#443a43; stroke:none;" d="M103 110L103 111L105 112L104 110L103 110z"/>
<path style="fill:#bab2b8; stroke:none;" d="M104 110L105 111L104 110M106 110L107 111L106 110z"/>
<path style="fill:#9b929a; stroke:none;" d="M108 110L109 111L108 110z"/>
<path style="fill:#bab2b8; stroke:none;" d="M114 110L115 111L114 110z"/>
<path style="fill:#7d727d; stroke:none;" d="M123 110L124 111L123 110z"/>
<path style="fill:#bab2b8; stroke:none;" d="M103 111L104 112L103 111M105 111L104 112L105 114L107 113L106 111L105 111M107 111L108 112L107 111z"/>
<path style="fill:#443a43; stroke:none;" d="M108 111L109 112L108 111z"/>
<path style="fill:#d0cacc; stroke:none;" d="M109 111L110 112L109 111z"/>
<path style="fill:#bab2b8; stroke:none;" d="M113 111L114 112L113 111z"/>
<path style="fill:#9b929a; stroke:none;" d="M124 111L125 112L124 111z"/>
<path style="fill:#635962; stroke:none;" d="M28 112L29 113L28 112M105 112L106 113L105 112z"/>
<path style="fill:#9b929a; stroke:none;" d="M108 112L109 113L108 112z"/>
<path style="fill:#7d727d; stroke:none;" d="M109 114L110.444 113.583L111.556 113.25L113 113L112.222 112.278L111.722 112.278L111 112.167L109.722 112.667L109.361 112.861L109 114M124.667 112.333L124.667 112.667L125.333 112.667L125 112.333L124.667 112.333M29 113L30 114L29 113z"/>
<path style="fill:#635962; stroke:none;" d="M106 113L106 114L108 115L107 113L106 113z"/>
<path style="fill:#9b929a; stroke:none;" d="M107 113L108 114L107 113M126 113L127 114L126 113z"/>
<path style="fill:#443a43; stroke:none;" d="M30 114L31 115L30 114z"/>
<path style="fill:#bab2b8; stroke:none;" d="M108 114L108.167 115.194L108.167 115.972L108 117L109.028 116.25L109.056 115.194L109.028 114.75L108 114M110 114L111 115L110 114z"/>
<path style="fill:#7d727d; stroke:none;" d="M127 114L127 116L129 116L129 115L127 114z"/>
<path style="fill:#443a43; stroke:none;" d="M128 114L129 115L128 114z"/>
<path style="fill:#635962; stroke:none;" d="M31 115L32 116L31 115z"/>
<path style="fill:#443a43; stroke:none;" d="M108 115L109 116L108 115z"/>
<path style="fill:#9b929a; stroke:none;" d="M111 115L112 116L111 115z"/>
<path style="fill:#7d727d; stroke:none;" d="M109 116L109 118L111 118L111 116L109 116z"/>
<path style="fill:#9b929a; stroke:none;" d="M112 116L113 117L112 116M129 116L130 117L129 116z"/>
<path style="fill:#7d727d; stroke:none;" d="M31 117L32 118L31 117z"/>
<path style="fill:#bab2b8; stroke:none;" d="M105 117L106 118L105 117z"/>
<path style="fill:#443a43; stroke:none;" d="M106 117L106.722 117.722L107.25 117.75L109 118L108.278 117.278L107.75 117.25L106 117z"/>
<path style="fill:#9b929a; stroke:none;" d="M111 117L111 118L113 119L112 117L111 117z"/>
<path style="fill:#bab2b8; stroke:none;" d="M113 117L114 118L113 117z"/>
<path style="fill:#9b929a; stroke:none;" d="M130 117L131 118L130 117z"/>
<path style="fill:#bab2b8; stroke:none;" d="M31.3333 118.667L31.3333 119.333L31.6667 119.333L31.6667 118.667L31.3333 118.667z"/>
<path style="fill:#635962; stroke:none;" d="M104 118L105 119L104 118z"/>
<path style="fill:#bab2b8; stroke:none;" d="M110 118L111 119L110 118z"/>
<path style="fill:#443a43; stroke:none;" d="M111 118L112 119L111 118z"/>
<path style="fill:#9b929a; stroke:none;" d="M114 118L115 119L114 118z"/>
<path style="fill:#635962; stroke:none;" d="M130 118L130 119L132 120L132 118L130 118z"/>
<path style="fill:#7d727d; stroke:none;" d="M103 119L104 120L103 119M111 119L111.778 120.5L112.306 121.028L113.972 122.611L114.944 123.028L115.5 123.361L117 123L116.306 121.944L115.917 121.611L115.278 120.972L113.833 119.917L112.472 119.278L111 119z"/>
<path style="fill:#bab2b8; stroke:none;" d="M113 119L114 120L113 119z"/>
<path style="fill:#9b929a; stroke:none;" d="M115 119L116 120L115 119z"/>
<path style="fill:#7d727d; stroke:none;" d="M132 119L132 121L134 121L133 119L132 119z"/>
<path style="fill:#635962; stroke:none;" d="M31 120L32 121L31 120z"/>
<path style="fill:#d0cacc; stroke:none;" d="M35 120L34 122L34 123L39 123L38.2222 121.944L37.75 121.639L36.4722 120.694L35 120z"/>
<path style="fill:#7d727d; stroke:none;" d="M101 120L102 121L101 120z"/>
<path style="fill:#443a43; stroke:none;" d="M102 120L103 121L102 120z"/>
<path style="fill:#bab2b8; stroke:none;" d="M116 120L117 121L116 120z"/>
<path style="fill:#9b929a; stroke:none;" d="M32 121L33 122L32 121z"/>
<path style="fill:#bab2b8; stroke:none;" d="M99 121L100 122L99 121z"/>
<path style="fill:#443a43; stroke:none;" d="M112 121L113 122L112 121z"/>
<path style="fill:#bab2b8; stroke:none;" d="M115 121L116 122L115 121z"/>
<path style="fill:#9b929a; stroke:none;" d="M117 121L118 122L117 121M134 121L135 122L134 121z"/>
<path style="fill:#7d727d; stroke:none;" d="M33 122L34 123L33 122z"/>
<path style="fill:#635962; stroke:none;" d="M99 122L100 123L99 122z"/>
<path style="fill:#9b929a; stroke:none;" d="M118 122L119 123L118 122z"/>
<path style="fill:#7d727d; stroke:none;" d="M135 122L135 124L137 124L137 123L135 122z"/>
<path style="fill:#443a43; stroke:none;" d="M136 122L137 123L136 122z"/>
<path style="fill:#7d727d; stroke:none;" d="M39 123L40 124L39 123z"/>
<path style="fill:#d0cacc; stroke:none;" d="M98 123L99 124L98 123z"/>
<path style="fill:#635962; stroke:none;" d="M115 124L115.75 125.083L116.806 126.222L117.25 126.583L118 128L119.222 127.944L120.222 128.556L121.472 130.056L123.083 131.972L124.944 133.667L125.944 134.278L126.5 134.639L128 135L128 138L129.417 138.75L129.833 139.222L130.667 139.889L132.139 141.361L132.806 142.111L133.556 142.778L133.917 143.25L135 144L135.361 142.5L135.056 141.944L134.694 140.972L134.083 140.083L132.694 138.417L131.306 137L130.583 136.306L128.917 134.778L127.972 133.917L126 132L125 131L123 129L117 123L115 124z"/>
<path style="fill:#9b929a; stroke:none;" d="M117 123L118 124L117 123z"/>
<path style="fill:#bab2b8; stroke:none;" d="M119 123L120 124L119 123z"/>
<path style="fill:#443a43; stroke:none;" d="M137 123L136 125L137.083 124L137.417 123.667L137 123M40 124L41 125L40 124z"/>
<path style="fill:#9b929a; stroke:none;" d="M41 124L42 125L41 124z"/>
<path style="fill:#443a43; stroke:none;" d="M98 124L99 125L98 124z"/>
<path style="fill:#bab2b8; stroke:none;" d="M118 124L119 125L118 124z"/>
<path style="fill:#9b929a; stroke:none;" d="M120 124L121 125L120 124M137 124L138 125L137 124z"/>
<path style="fill:#635962; stroke:none;" d="M43 125L43.7778 125.722L44.25 125.75L45.0556 125.944L47 126L46.2222 125.278L45.75 125.25L44.9444 125.056L43 125z"/>
<path style="fill:#7d727d; stroke:none;" d="M97 125L98 126L97 125z"/>
<path style="fill:#9b929a; stroke:none;" d="M119 125L120 126L119 125M121 125L122 126L121 125z"/>
<path style="fill:#7d727d; stroke:none;" d="M138 125L138 126L140 127L139 125L138 125z"/>
<path style="fill:#635962; stroke:none;" d="M47 126L48 127L47 126z"/>
<path style="fill:#d0cacc; stroke:none;" d="M48 126L49 127L48 126z"/>
<path style="fill:#7d727d; stroke:none;" d="M96 126L97 127L96 126z"/>
<path style="fill:#bab2b8; stroke:none;" d="M120 126L121 127L120 126z"/>
<path style="fill:#9b929a; stroke:none;" d="M122 126L123 127L122 126z"/>
<path style="fill:#443a43; stroke:none;" d="M138 126L139 127L138 126z"/>
<path style="fill:#7d727d; stroke:none;" d="M48 127L49 128L48 127z"/>
<path style="fill:#d0cacc; stroke:none;" d="M87 127L88 128L87 127z"/>
<path style="fill:#7d727d; stroke:none;" d="M91 127L91.7222 127.722L92.25 127.75L94 128L93.2778 127.278L92.75 127.25L91 127z"/>
<path style="fill:#9b929a; stroke:none;" d="M119 127L120 128L119 127M121 127L122 128L121 127M123 127L124 128L123 127z"/>
<path style="fill:#635962; stroke:none;" d="M139 127L139.722 128.139L140.25 128.333L142 129L141 127L139 127z"/>
<path style="fill:#9b929a; stroke:none;" d="M86 128L87 129L86 128M120 128L121 129L120 128M122 128L123 129L122 128z"/>
<path style="fill:#bab2b8; stroke:none;" d="M124 128L125 129L124 128z"/>
<path style="fill:#635962; stroke:none;" d="M49 129L50 130L49 129z"/>
<path style="fill:#d0cacc; stroke:none;" d="M52 129L53 130L52 129M80 129L80.7778 129.722L81.25 129.75L82.0556 129.944L84 130L83.2222 129.278L82.75 129.25L81.9444 129.056L80 129z"/>
<path style="fill:#7d727d; stroke:none;" d="M84 129L85 130L84 129z"/>
<path style="fill:#9b929a; stroke:none;" d="M123 129L124 130L123 129M125 129L126 130L125 129M142 129L143 130L142 129z"/>
<path style="fill:#7d727d; stroke:none;" d="M50 130L51 131L50 130M79 130L80 131L79 130z"/>
<path style="fill:#9b929a; stroke:none;" d="M124 130L125 131L124 130M126 130L127 131L126 130z"/>
<path style="fill:#635962; stroke:none;" d="M143 130L143 132L145 132L145 130L143 130M51 131L52 132L51 131z"/>
<path style="fill:#d0cacc; stroke:none;" d="M52.6667 131.333L52.6667 131.667L53.3333 131.667L53 131.333L52.6667 131.333z"/>
<path style="fill:#bab2b8; stroke:none;" d="M57.6667 131.333L57.6667 131.667L58.3333 131.667L58 131.333L57.6667 131.333z"/>
<path style="fill:#7d727d; stroke:none;" d="M78 131L79 132L78 131z"/>
<path style="fill:#9b929a; stroke:none;" d="M125 131L126 132L125 131M127 131L128 132L127 131z"/>
<path style="fill:#443a43; stroke:none;" d="M53 132L53.7222 132.722L54.25 132.75L56 133L55.2778 132.278L54.75 132.25L53 132z"/>
<path style="fill:#635962; stroke:none;" d="M59 132L60 133L59 132z"/>
<path style="fill:#bab2b8; stroke:none;" d="M77 132L78 133L77 132z"/>
<path style="fill:#443a43; stroke:none;" d="M123 132L124 133L123 132z"/>
<path style="fill:#9b929a; stroke:none;" d="M126 132L127 133L126 132M128 132L129 133L128 132M145 132L146 133L145 132z"/>
<path style="fill:#443a43; stroke:none;" d="M60 133L61 134L60 133z"/>
<path style="fill:#bab2b8; stroke:none;" d="M61 133L62 134L61 133z"/>
<path style="fill:#9b929a; stroke:none;" d="M127 133L128 134L127 133M129 133L130 134L129 133z"/>
<path style="fill:#443a43; stroke:none;" d="M145 133L145 134L147 135L146 133L145 133z"/>
<path style="fill:#7d727d; stroke:none;" d="M146 133L147 134L146 133z"/>
<path style="fill:#635962; stroke:none;" d="M61 134L62 135L61 134z"/>
<path style="fill:#bab2b8; stroke:none;" d="M128 134L129 135L128 134z"/>
<path style="fill:#9b929a; stroke:none;" d="M130 134L131 135L130 134z"/>
<path style="fill:#7d727d; stroke:none;" d="M147 134L148 135L147 134M63 135L64 136L63 135M74 135L75 136L74 135z"/>
<path style="fill:#9b929a; stroke:none;" d="M127 135L128 136L127 135z"/>
<path style="fill:#bab2b8; stroke:none;" d="M129 135L130 136L129 135z"/>
<path style="fill:#9b929a; stroke:none;" d="M131 135L132 136L131 135M148 135L149 136L148 135z"/>
<path style="fill:#443a43; stroke:none;" d="M64 136L65 137L64 136z"/>
<path style="fill:#7d727d; stroke:none;" d="M65 136L66 137L65 136z"/>
<path style="fill:#d0cacc; stroke:none;" d="M66 136L66.7778 136.722L67.3056 136.75L68.0556 136.944L68.9722 136.972L71 137L70.2222 136.278L69.6944 136.25L68.9444 136.056L68.0278 136.028L66 136z"/>
<path style="fill:#bab2b8; stroke:none;" d="M71 136L72 137L71 136z"/>
<path style="fill:#635962; stroke:none;" d="M72 136L73 137L72 136z"/>
<path style="fill:#9b929a; stroke:none;" d="M149 136L150 137L149 136M131 137L132 138L131 137M133 137L134 138L133 137M134 138L135 139L134 138M133 139L134 140L133 139M135 139L136 140L135 139z"/>
<path style="fill:#bab2b8; stroke:none;" d="M134 140L135 141L134 140z"/>
<path style="fill:#9b929a; stroke:none;" d="M136 140L137 141L136 140z"/>
<path style="fill:#7d727d; stroke:none;" d="M149 140L146.944 142.056L145.944 143.028L145.028 143.917L143.306 145.528L142.778 145.917L142 147L143.5 147.361L144.056 147.028L145.056 146.611L146.972 144.972L147.889 144L149.222 142.111L149.417 141.306L149.611 140.778L149 140z"/>
<path style="fill:#9b929a; stroke:none;" d="M135 141L136 142L135 141M137 141L138 142L137 141z"/>
<path style="fill:#bab2b8; stroke:none;" d="M136 142L137 143L136 142z"/>
<path style="fill:#9b929a; stroke:none;" d="M138 142L139 143L138 142z"/>
<path style="fill:#1c021a; stroke:none;" d="M149 142L146.944 144.056L145.944 145.056L145.028 146L144.111 146.944L143.306 147.944L142.778 148.5L142 150L150 150L150 147.944L150 146.944L149.972 145.028L149.944 144.111L149.75 143.306L149.722 142.778L149 142z"/>
<path style="fill:#9b929a; stroke:none;" d="M135 143L136 144L135 143z"/>
<path style="fill:#443a43; stroke:none;" d="M136 143L137 144L136 143z"/>
<path style="fill:#9b929a; stroke:none;" d="M137 143L138 144L137 143M139 143L140 144L139 143z"/>
<path style="fill:#635962; stroke:none;" d="M136 144L136.694 145.472L137.083 145.972L138.361 147.5L139.167 148.083L139.583 148.472L141 149L140.639 147.5L139.667 146.056L138.944 145.333L137.5 144.361L136 144z"/>
<path style="fill:#bab2b8; stroke:none;" d="M138 144L139 145L138 144z"/>
<path style="fill:#d0cacc; stroke:none;" d="M139 144L139 145L141 146L140 144L139 144z"/>
<path style="fill:#bab2b8; stroke:none;" d="M140 144L141 145L140 144z"/>
<path style="fill:#9b929a; stroke:none;" d="M139 145L140 146L139 145M141 145L140.528 146.444L140.667 147L141 149L141.667 148.25L141.611 147.778L141.75 147.139L141.583 145.917L141.556 145.528L141 145z"/>
<path style="fill:#fcfcfa; stroke:none;" d="M141 146L142 147L141 146z"/>
<path style="fill:#d0cacc; stroke:none;" d="M142 147L143 148L142 147z"/>
<path style="fill:#443a43; stroke:none;" d="M139 148L139.361 149.139L139.667 149.333L140.611 149.889L142 150L141.278 149.028L140.75 148.833L139 148z"/>
<path style="fill:#635962; stroke:none;" d="M142 148L143 149L142 148z"/>
</svg>
